<svg xmlns="http://www.w3.org/2000/svg" version="1.0" width="500.000000pt" height="500.000000pt" viewBox="0 0 500.000000 500.000000" preserveAspectRatio="xMidYMid meet">

<g transform="translate(0.000000,500.000000) scale(0.100000,-0.100000)" fill="#ffffff" stroke="none">
<path d="M1803 4671 c-31 -20 -63 -75 -63 -110 0 -17 6 -21 34 -21 38 0 88 -34 80 -54 -3 -8 7 -23 21 -34 54 -43 29 -141 -56 -222 -21 -19 -41 -47 -44 -62 -4 -16 -10 -26 -14 -24 -3 2 -11 -2 -17 -8 -29 -31 11 -166 57 -194 11 -7 22 -12 24 -10 2 2 -3 27 -10 55 -14 52 -10 123 6 123 4 0 25 -11 45 -25 20 -14 60 -32 90 -42 29 -9 53 -19 52 -22 -2 -18 4 -21 21 -11 12 6 22 6 26 1 3 -5 -4 -12 -15 -16 -11 -3 -20 -10 -20 -15 0 -5 -9 -11 -19 -15 -11 -3 -22 -13 -25 -21 -5 -12 -2 -14 11 -9 10 4 25 9 33 10 32 4 91 35 140 74 29 23 50 41 47 41 -3 0 -35 -16 -71 -36 -36 -19 -66 -33 -66 -30 0 8 103 80 119 84 9 2 36 6 61 9 l45 6 -20 -23 c-11 -13 -14 -20 -6 -15 7 4 52 9 100 10 53 2 78 0 66 -5 -11 -5 -31 -9 -45 -9 -14 -1 -36 -7 -50 -14 -14 -7 -42 -14 -64 -16 -21 -1 -59 -14 -83 -28 -25 -13 -47 -22 -50 -19 -6 6 -74 -27 -118 -57 -22 -16 -27 -17 -16 -4 7 9 10 17 7 17 -12 0 -77 -53 -71 -58 2 -3 0 -11 -6 -19 -18 -21 81 26 134 64 26 19 62 37 80 38 17 2 44 7 60 10 16 4 27 3 27 -3 0 -10 -34 -26 -80 -36 -14 -4 -38 -18 -55 -32 l-30 -26 34 17 c46 23 140 55 160 55 9 -1 -9 -14 -39 -29 -30 -15 -75 -38 -100 -51 -51 -26 -121 -72 -145 -96 -25 -26 -9 -29 22 -4 l28 22 6 -29 c4 -15 7 -23 8 -17 0 6 13 17 29 23 15 6 49 32 75 56 26 25 51 45 55 46 4 0 16 3 27 5 66 14 115 14 170 -2 33 -9 76 -18 95 -20 19 -2 2 6 -38 17 -90 26 -88 36 2 14 37 -8 82 -15 99 -16 26 0 28 -2 12 -8 -18 -7 -16 -9 11 -15 35 -8 96 -54 89 -67 -3 -4 11 -11 31 -15 22 -4 31 -9 24 -14 -9 -5 -5 -10 11 -15 35 -11 117 -99 172 -186 19 -29 19 -29 -3 -29 -12 0 -30 5 -42 11 -11 6 -22 8 -25 5 -10 -9 68 -38 89 -33 10 3 21 1 24 -5 10 -15 -22 -41 -53 -44 -16 -2 -39 -5 -53 -8 -33 -7 -46 2 -65 47 l-15 37 32 1 c28 1 25 3 -19 13 -62 15 -91 35 -71 47 23 15 -8 10 -38 -6 -16 -8 -38 -15 -50 -15 -23 0 -137 117 -131 134 5 15 57 16 68 2 56 -73 63 -78 102 -71 46 9 41 17 -15 24 -46 7 -91 52 -71 72 8 8 21 4 49 -15 37 -25 94 -36 94 -18 0 5 -13 7 -28 4 -20 -3 -37 4 -59 22 -24 20 -41 25 -89 26 -86 1 -94 2 -94 13 0 5 -7 7 -15 3 -9 -3 -23 3 -32 14 -10 11 -26 20 -37 20 -14 0 -9 -7 18 -25 20 -14 42 -25 48 -25 24 0 -16 -30 -48 -36 -39 -7 -44 -21 -12 -33 20 -7 18 -10 -23 -32 -55 -30 -66 -66 -19 -63 l30 2 -20 -29 c-22 -29 -38 -43 -55 -45 -5 0 -15 -2 -21 -2 -22 -3 -47 -56 -51 -107 -2 -27 -9 -60 -15 -73 -10 -19 -8 -24 8 -36 10 -8 22 -12 26 -10 5 3 8 0 8 -6 0 -6 4 -8 10 -5 15 10 5 -142 -11 -162 -12 -14 -12 -16 1 -8 12 6 12 5 3 -5 -6 -7 -9 -20 -5 -28 4 -12 1 -11 -15 3 -11 11 -24 31 -28 45 -8 24 -8 24 -16 5 -4 -11 -8 -33 -9 -50 -1 -29 -1 -29 -16 -10 -13 18 -14 17 -8 -15 4 -19 13 -52 21 -74 7 -21 13 -60 13 -87 0 -52 18 -149 29 -162 4 -4 6 32 4 80 -3 83 -2 86 12 58 24 -50 18 0 -10 88 -24 76 -34 137 -15 92 8 -18 9 -18 10 5 l1 25 14 -25 c8 -14 14 -33 15 -42 0 -10 4 -18 8 -18 15 0 31 -83 20 -103 -8 -15 -7 -18 3 -12 9 6 11 4 6 -7 -3 -9 7 -37 25 -64 17 -27 23 -42 14 -35 -19 16 -19 16 -5 -49 6 -27 15 -50 20 -50 5 0 9 5 9 11 0 5 5 7 10 4 6 -3 10 -20 10 -36 0 -36 25 -99 40 -99 6 0 8 12 5 28 -2 15 1 9 9 -13 14 -42 26 -48 37 -18 4 10 8 14 9 8 8 -58 20 -85 20 -47 0 12 4 22 8 22 12 0 32 -70 32 -108 0 -36 -23 -45 -100 -36 -32 3 -50 2 -46 -4 3 -5 -6 -8 -19 -6 -14 1 -32 -4 -40 -12 -8 -8 -17 -14 -20 -14 -3 1 -17 -7 -32 -18 -23 -17 -24 -21 -12 -40 7 -12 11 -24 8 -27 -10 -10 -39 7 -33 19 3 6 -1 3 -9 -7 -9 -10 -19 -19 -24 -20 -4 -1 -7 -5 -5 -9 1 -5 -2 -8 -8 -8 -5 0 -17 -16 -26 -35 -15 -32 -34 -47 -34 -26 0 8 -51 23 -58 16 -2 -1 16 -12 40 -24 24 -11 35 -21 25 -21 -16 0 -16 -2 3 -22 11 -12 20 -26 20 -31 0 -11 37 0 69 20 l25 16 -25 20 c-17 14 -20 21 -10 25 7 2 21 13 29 23 21 25 35 24 27 -1 -6 -18 3 -25 28 -21 4 0 7 -4 7 -10 0 -8 6 -7 17 2 15 13 15 12 4 -8 -6 -13 -17 -23 -24 -24 -7 0 -3 -4 8 -9 17 -7 17 -9 3 -9 -10 -1 -18 -6 -18 -12 0 -7 -9 -9 -21 -6 -17 5 -18 3 -8 -9 10 -12 8 -13 -13 -5 -24 9 -45 3 -163 -49 -62 -28 -83 -32 -91 -19 -5 8 -2 10 7 7 8 -3 25 0 38 7 21 11 17 12 -30 9 -52 -2 -53 -2 -29 12 14 9 17 13 7 10 -10 -3 -28 -6 -40 -7 -12 0 -16 -3 -9 -6 22 -9 13 -25 -10 -18 -16 4 -19 4 -9 -3 17 -12 6 -32 -17 -31 -14 0 -14 2 2 8 14 5 16 10 7 15 -9 6 -9 11 -1 21 13 16 5 35 -13 34 -9 0 -9 -2 1 -6 6 -2 12 -9 12 -14 0 -6 -7 -6 -19 0 -16 9 -18 8 -14 -10 5 -19 3 -20 -14 -10 -11 5 -24 7 -28 3 -5 -4 -5 -1 -1 6 4 7 12 10 17 7 5 -4 9 -1 9 4 0 12 -27 10 -47 -2 -9 -5 -11 -3 -7 6 4 11 -4 14 -33 13 -27 -2 -38 -7 -38 -19 0 -8 -4 -19 -9 -24 -5 -4 -6 -3 -2 4 4 8 -1 11 -13 10 -16 -1 -18 -4 -8 -16 10 -12 8 -13 -13 -7 l-25 7 25 -15 c14 -9 21 -15 17 -16 -5 0 -22 8 -37 17 -26 15 -27 18 -12 29 13 10 14 13 3 14 -8 0 -23 8 -33 17 -18 16 -18 16 -12 0 3 -9 2 -17 -3 -17 -5 0 -9 11 -9 24 0 14 4 24 9 23 5 -1 12 5 15 13 2 8 1 12 -3 8 -8 -8 -33 30 -61 91 -11 24 -14 48 -9 83 7 49 8 50 36 44 50 -10 34 36 -22 64 -42 22 -71 25 -99 10 -15 -8 -20 -4 -30 20 -6 15 -20 36 -31 46 -34 31 -23 60 20 55 7 -2 10 2 7 7 -3 6 1 13 9 16 22 8 15 58 -10 73 -13 7 -26 8 -37 2 -10 -5 -18 -6 -18 -2 0 4 -6 1 -13 -8 -15 -19 -47 -32 -47 -18 0 6 -4 8 -9 5 -5 -3 -7 24 -5 62 8 149 7 165 -6 157 -5 -3 -10 -2 -10 3 0 13 -121 73 -132 66 -5 -3 -8 -2 -7 3 3 20 -2 27 -11 13 -8 -12 -10 -11 -10 7 0 12 -3 30 -6 40 -5 15 -4 15 5 3 8 -11 10 -6 8 21 -2 34 -4 36 -32 32 -16 -2 -32 -8 -33 -13 -2 -6 -8 -8 -13 -5 -5 4 -2 16 6 28 14 21 13 23 -15 34 -18 7 -30 7 -30 2 0 -6 -5 -7 -11 -3 -7 4 -10 1 -7 -7 3 -8 12 -13 19 -11 10 2 10 -1 -2 -10 -9 -7 -18 -20 -22 -28 -3 -10 -6 -11 -6 -2 -1 9 -6 10 -20 2 -14 -7 -22 -7 -26 0 -4 6 -11 8 -16 4 -5 -3 -7 -10 -4 -15 4 -5 2 -9 -4 -9 -5 0 -11 5 -13 12 -6 18 -43 -13 -43 -37 0 -38 21 -59 59 -59 20 0 36 -4 36 -8 0 -4 3 -7 8 -6 4 1 30 -7 58 -17 62 -23 99 -70 96 -121 -3 -44 16 -116 28 -109 6 4 10 -1 10 -9 0 -9 11 -18 24 -22 13 -3 36 -19 50 -35 14 -16 32 -29 40 -29 7 0 21 -17 32 -37 10 -21 25 -44 32 -51 15 -17 16 -25 1 -16 -7 4 -10 1 -7 -7 3 -8 9 -14 14 -15 18 -2 44 -16 44 -24 0 -5 -7 -16 -16 -25 -9 -8 -13 -22 -10 -31 3 -8 2 -13 -3 -10 -4 3 -13 -6 -20 -20 -13 -30 -14 -37 -3 -30 5 3 9 -1 9 -9 0 -8 -5 -12 -10 -8 -5 3 -4 -4 2 -16 7 -11 9 -21 6 -21 -4 0 6 -13 22 -29 15 -16 54 -60 86 -98 34 -41 73 -75 92 -83 25 -10 32 -18 29 -34 -3 -11 -2 -16 1 -10 3 7 15 9 27 6 13 -3 19 -1 15 5 -3 5 0 10 8 10 7 0 16 -9 19 -19 3 -15 1 -18 -11 -14 -11 4 -13 2 -9 -9 3 -8 2 -14 -2 -14 -18 3 -46 -3 -34 -8 22 -9 12 -20 -17 -18 -17 1 -29 -3 -28 -9 1 -5 -7 -11 -18 -13 -16 -3 -17 -2 -5 6 11 8 12 11 2 11 -7 0 -11 4 -8 9 4 5 -4 7 -16 5 -13 -2 -17 -2 -10 2 20 9 14 24 -10 24 -12 0 -19 3 -15 6 8 9 -14 30 -42 39 -20 6 -22 4 -16 -15 6 -18 4 -21 -6 -14 -21 13 -50 12 -89 -3 -19 -8 -45 -11 -57 -8 -16 4 -23 1 -23 -10 0 -8 -7 -15 -15 -15 -19 0 -19 -14 2 -58 16 -34 16 -36 -1 -46 -24 -15 -54 -39 -37 -30 9 4 12 3 8 -4 -4 -5 -30 -13 -57 -17 -34 -5 -48 -11 -44 -18 5 -8 2 -7 -7 0 -7 7 -29 12 -49 12 -23 -1 -27 -3 -12 -6 46 -9 8 -32 -40 -24 -13 2 -9 -17 5 -23 6 -2 1 -3 -13 -1 -14 2 -29 4 -34 4 -4 1 0 13 9 28 10 16 12 22 4 16 -18 -18 -39 -16 -61 4 -11 9 -18 11 -18 5 0 -7 5 -12 11 -12 5 0 7 -5 3 -11 -4 -8 -10 -6 -17 6 -8 14 -11 15 -18 4 -7 -11 -9 -10 -9 3 0 14 -5 16 -23 9 -21 -8 -49 7 -46 26 4 27 -3 33 -28 27 -16 -4 -32 -7 -38 -8 -5 0 -13 -5 -17 -11 -5 -6 -8 -5 -8 3 0 9 -5 10 -19 2 -11 -5 -30 -10 -42 -10 -18 0 -20 -4 -14 -22 14 -45 16 -152 3 -174 -7 -12 -23 -40 -35 -62 -13 -22 -32 -43 -43 -47 -11 -3 -20 -12 -20 -20 0 -22 -28 -26 -35 -4 -5 14 -12 18 -25 14 -12 -4 -25 2 -37 17 -22 27 -34 31 -67 18 -17 -6 -26 -5 -28 2 -7 19 -130 23 -165 5 -23 -13 -33 -13 -44 -4 -11 10 -11 9 0 -5 11 -14 10 -22 -5 -48 -10 -16 -21 -30 -24 -30 -4 0 -3 -26 1 -57 5 -39 15 -63 28 -74 10 -9 21 -30 23 -48 2 -26 -2 -34 -22 -44 -14 -7 -27 -21 -29 -32 -4 -25 -19 -35 -53 -35 l-28 0 0 -96 c0 -90 1 -96 17 -83 10 8 46 38 80 66 72 60 110 78 199 95 41 7 75 21 95 37 l31 26 -16 39 -16 38 -82 -3 c-70 -3 -83 -2 -86 12 -2 11 6 19 22 23 14 3 42 20 61 37 l35 31 88 -28 c48 -15 90 -32 94 -38 9 -13 79 45 114 95 24 35 29 54 33 117 l3 74 52 -6 c28 -4 63 -13 78 -21 16 -8 30 -9 34 -4 3 5 56 9 118 9 95 0 115 -3 128 -17 28 -33 49 -84 43 -104 -14 -42 -13 -74 2 -91 15 -17 2 -35 -17 -23 -5 3 -10 2 -10 -2 0 -5 -17 -10 -37 -10 l-38 -2 34 12 33 13 -26 12 c-14 6 -25 8 -23 4 1 -4 -2 -8 -8 -10 -5 -1 -10 2 -10 7 0 16 -15 25 -63 37 -44 12 -50 11 -84 -12 -41 -26 -50 -54 -19 -54 16 0 128 -37 140 -47 7 -5 -53 -53 -64 -50 -6 1 -24 -8 -42 -21 -17 -12 -38 -22 -47 -22 -10 0 -16 -9 -16 -23 0 -43 -20 -57 -85 -60 -59 -2 -60 -2 -77 33 -13 27 -15 44 -9 73 11 45 7 47 -15 5 -13 -24 -15 -47 -11 -95 l6 -62 -27 10 c-14 6 -32 15 -39 21 -8 6 -30 8 -52 4 -24 -4 -41 -2 -43 5 -2 6 -26 9 -58 7 l-54 -3 58 -31 58 -31 -73 -18 c-41 -9 -89 -21 -106 -27 l-33 -9 30 -25 c23 -20 33 -23 49 -15 32 17 55 13 104 -20 43 -28 62 -59 36 -59 -6 0 -3 -7 5 -16 9 -8 21 -25 27 -36 6 -12 17 -17 27 -14 16 5 15 4 0 -6 -15 -11 -11 -15 30 -35 26 -13 55 -23 64 -23 23 0 48 -38 48 -71 0 -33 -36 -65 -93 -80 -37 -10 -41 -8 -68 17 -33 31 -36 46 -14 64 8 7 15 24 15 39 0 15 5 32 12 39 9 9 9 12 0 12 -7 0 -12 -4 -12 -9 0 -4 -50 -8 -110 -7 -110 1 -111 1 -116 -24 -3 -14 -8 -31 -10 -38 -8 -25 -29 -6 -45 40 -12 37 -17 43 -25 31 -5 -9 -16 -14 -23 -12 -11 4 -10 8 2 21 11 11 14 24 9 42 l-7 27 -28 -21 c-16 -13 -27 -17 -27 -9 0 6 -25 -15 -55 -47 -50 -52 -58 -57 -75 -46 -20 12 -20 9 -20 -128 l0 -140 25 6 c32 8 32 -9 0 -30 l-25 -16 0 -195 0 -195 216 0 c186 0 215 2 211 15 -4 8 -2 17 4 21 6 3 13 -3 16 -15 5 -19 13 -21 74 -21 57 0 67 3 63 15 -4 8 -10 15 -16 15 -5 0 -6 6 -2 13 6 8 3 8 -9 -1 -9 -8 -22 -12 -29 -9 -8 3 -2 9 14 17 23 11 25 16 17 38 -12 31 -14 136 -3 153 5 8 2 10 -8 6 -9 -3 -20 -1 -25 4 -6 6 -18 -9 -33 -41 -25 -54 -34 -60 -48 -33 -9 15 -11 14 -23 -5 -16 -25 -34 -30 -25 -6 3 8 2 12 -3 9 -5 -3 -12 4 -16 15 -3 11 -15 20 -26 20 -11 0 -19 7 -19 17 0 15 -2 14 -15 -3 -9 -12 -18 -15 -22 -9 -5 6 -19 11 -33 13 -14 1 -31 9 -38 16 -12 12 -11 18 2 38 9 14 28 30 44 38 15 7 34 16 43 21 13 6 18 3 22 -12 7 -27 32 -24 45 6 6 14 16 25 22 25 6 0 9 -4 6 -8 -3 -5 16 -14 41 -21 26 -6 52 -19 58 -28 11 -15 13 -15 24 5 9 18 14 20 25 10 7 -7 11 -22 8 -33 -5 -19 -4 -19 14 -3 21 18 98 42 89 27 -4 -5 1 -9 9 -9 10 0 13 6 10 15 -4 8 -1 15 6 15 6 0 8 -4 5 -10 -3 -5 6 -15 20 -22 22 -10 28 -9 36 3 6 10 9 2 9 -26 l1 -40 14 30 c15 30 15 30 12 3 -3 -23 -2 -25 14 -15 10 6 16 14 13 18 -12 20 17 16 31 -3 l17 -23 -4 26 c-3 18 1 30 14 38 10 6 17 16 15 22 -2 11 36 39 81 59 12 5 22 12 22 15 0 9 -55 -17 -88 -42 -42 -32 -52 -22 -27 24 22 39 26 42 97 70 25 9 44 21 42 25 -3 5 0 8 5 8 6 0 11 -4 11 -9 0 -5 13 -5 29 2 24 9 33 7 62 -15 19 -14 44 -29 57 -33 19 -5 22 -13 22 -60 0 -30 -5 -57 -11 -61 -19 -11 -49 -88 -49 -126 0 -47 -9 -52 -56 -32 -36 15 -77 15 -139 0 -11 -2 -30 -5 -41 -5 -16 -1 -33 -20 -63 -70 -23 -38 -49 -72 -59 -74 -9 -3 115 -5 276 -6 286 -1 292 -1 292 19 0 11 5 20 11 20 5 0 7 5 3 12 -5 7 -3 8 5 3 7 -4 10 -16 8 -27 -5 -19 -5 -19 14 -2 19 17 20 17 35 -4 10 -14 26 -22 45 -22 26 0 29 3 29 34 0 39 16 55 33 36 9 -10 9 -11 0 -6 -6 3 -14 2 -18 -4 -3 -5 -1 -10 6 -10 10 0 10 -3 1 -12 -24 -24 -13 -38 30 -38 38 0 40 1 23 14 -11 8 -23 12 -27 10 -5 -3 -8 0 -8 5 0 6 5 11 11 11 7 0 9 10 5 24 -6 24 -4 24 31 19 43 -6 83 -38 83 -65 0 -10 5 -18 10 -18 7 0 9 21 4 60 -7 59 15 162 36 175 5 3 20 -6 33 -21 22 -23 32 -26 98 -27 41 -1 80 2 87 6 16 10 16 82 0 95 -30 23 -75 23 -142 -2 l-66 -25 -14 32 c-18 44 -78 95 -123 103 -24 5 -51 2 -79 -9 -39 -14 -43 -14 -58 2 -30 33 -20 41 57 41 47 0 116 -11 195 -30 68 -17 126 -30 130 -30 17 1 -107 49 -141 55 -40 7 -60 31 -37 45 19 12 2 50 -22 50 -21 0 -21 1 3 26 13 14 33 30 44 34 16 6 13 8 -13 8 -18 -1 -35 2 -39 6 -11 11 20 26 42 20 14 -4 12 0 -7 13 -27 17 -27 19 -22 96 4 64 1 85 -12 106 -24 36 -45 50 -74 51 -74 0 -101 -34 -40 -50 41 -11 67 -32 28 -22 -22 5 -23 5 -5 -15 17 -19 17 -22 1 -37 -18 -19 -86 -16 -92 3 -2 6 -8 9 -13 5 -5 -3 -9 -1 -9 4 0 17 -40 1 -59 -24 -10 -13 -23 -24 -28 -24 -18 0 -45 39 -39 56 5 12 2 15 -10 10 -14 -5 -16 -1 -11 28 8 48 52 139 84 170 29 29 17 34 -27 11 -39 -20 -67 -59 -75 -103 -12 -75 -72 -147 -94 -115 -3 5 -21 19 -39 32 -19 13 -42 37 -53 54 l-18 31 -11 -29 c-6 -15 -8 -47 -5 -69 3 -23 1 -48 -5 -56 -9 -13 -12 -13 -25 4 -7 10 -18 15 -24 11 -6 -3 -11 0 -11 7 0 21 -60 89 -72 82 -7 -4 -6 -9 2 -14 9 -6 7 -13 -8 -28 -22 -22 -84 -24 -104 -4 -14 14 -13 63 1 72 10 5 9 16 -3 45 -20 48 -20 47 9 79 17 19 34 26 60 26 33 0 36 -2 30 -22 -4 -16 -3 -19 3 -9 6 8 11 9 13 2 3 -7 19 -6 52 4 70 21 72 24 37 56 -25 24 -35 27 -51 19 -11 -6 -25 -8 -31 -4 -6 4 -17 -1 -24 -11 -8 -10 -17 -16 -20 -12 -9 9 38 58 128 133 50 41 79 60 84 52 5 -7 3 -8 -6 -3 -9 6 -11 4 -6 -4 6 -9 13 -8 29 6 11 10 17 13 13 6 -10 -18 26 -33 79 -33 25 0 57 -7 70 -16 13 -9 31 -14 39 -12 13 3 13 9 -4 46 -19 42 -16 52 10 29 8 -6 6 -2 -5 11 -10 12 -25 20 -32 18 -7 -3 -12 0 -10 6 1 7 -5 13 -13 14 -8 0 -23 2 -33 2 -10 1 -15 7 -12 12 4 7 -3 8 -22 4 -36 -9 -55 -23 -46 -37 3 -6 1 -7 -5 -3 -11 6 2 36 42 99 8 12 31 62 51 111 45 110 60 133 96 152 45 23 281 95 309 94 14 -1 53 -3 87 -4 60 -4 157 16 178 35 5 5 18 9 28 9 10 0 44 16 75 35 32 19 125 58 207 85 142 48 154 51 220 44 38 -3 80 -13 93 -22 34 -22 90 -2 149 55 52 49 70 57 253 103 85 22 116 27 121 18 5 -7 -1 -18 -14 -27 -34 -23 -44 -41 -57 -101 -14 -62 -38 -115 -69 -146 -11 -12 -17 -25 -14 -28 4 -3 -2 -6 -11 -6 -12 0 -16 -5 -12 -15 3 -9 0 -18 -8 -21 -8 -3 -12 -19 -11 -39 1 -19 -3 -35 -9 -35 -6 0 -5 -4 3 -9 11 -7 7 -13 -18 -25 -17 -9 -31 -19 -31 -22 0 -3 5 -2 10 1 6 3 10 2 10 -4 0 -5 -12 -16 -27 -23 -16 -7 -29 -20 -29 -28 -1 -8 -2 -21 -3 -27 0 -7 -6 -13 -12 -13 -8 0 -8 4 0 14 10 12 8 13 -8 9 -20 -5 -26 -16 -22 -37 1 -5 -4 -4 -12 3 -12 9 -18 8 -30 -4 -9 -8 -24 -16 -34 -18 -10 -1 -22 -5 -28 -8 -9 -6 -55 -18 -72 -20 -21 -2 -43 -21 -37 -31 4 -6 3 -8 -2 -5 -12 7 -26 -2 -40 -28 -6 -11 -37 -41 -70 -68 -32 -26 -63 -56 -68 -67 -5 -11 -15 -20 -23 -20 -7 0 -13 -4 -13 -9 0 -5 -9 -13 -20 -16 -15 -5 -19 -12 -14 -31 5 -18 2 -24 -10 -24 -9 0 -16 4 -16 8 0 13 -66 41 -78 33 -15 -9 12 -49 39 -60 19 -7 19 -7 1 -27 -16 -16 -18 -31 -14 -72 4 -41 1 -57 -13 -72 -11 -13 -14 -20 -6 -20 8 0 7 -7 -3 -22 -22 -31 -20 -41 5 -27 17 9 20 8 13 -3 -12 -19 -14 -37 -3 -44 5 -3 9 -14 9 -25 0 -11 -4 -17 -10 -14 -16 10 -12 -12 5 -29 8 -8 15 -20 15 -27 0 -8 -7 -5 -19 7 -10 10 -17 22 -14 27 2 4 -1 7 -7 7 -6 0 -9 4 -6 9 3 5 -1 14 -9 21 -12 10 -15 9 -16 -4 -3 -38 -6 -53 -18 -96 -7 -25 -14 -50 -15 -57 -1 -7 -9 -20 -17 -30 -26 -30 -34 -50 -10 -26 29 30 35 29 17 -5 -15 -29 -72 -75 -92 -75 -7 0 -10 -7 -6 -16 5 -14 3 -14 -11 -2 -9 7 -17 10 -17 6 0 -4 -6 -3 -12 3 -7 5 -24 9 -38 7 -14 -1 -35 -3 -48 -4 -13 0 -20 -5 -17 -11 4 -6 11 -7 17 -4 7 4 8 2 4 -4 -4 -7 18 -50 49 -98 56 -86 57 -86 92 -81 20 4 44 14 54 23 21 19 25 73 9 104 -8 16 -3 28 33 67 28 33 50 72 67 121 18 51 29 72 42 72 9 0 24 7 33 16 13 14 14 19 3 25 -10 7 -9 9 5 9 12 0 17 8 16 28 -2 23 -2 24 -6 5 -5 -29 -33 -30 -33 -2 0 11 -4 17 -10 14 -18 -11 -9 39 19 110 26 63 33 72 74 92 25 12 48 31 52 43 3 11 12 20 20 20 7 0 23 12 34 28 11 15 35 41 52 58 35 35 33 49 -11 59 -17 4 -30 11 -30 17 0 22 77 84 125 100 139 46 166 52 199 40 38 -14 76 -16 76 -4 0 5 10 14 23 20 31 15 71 48 141 118 53 52 130 149 131 164 0 3 6 14 12 26 7 11 18 69 25 127 10 84 16 107 29 110 41 11 45 -9 64 -298 16 -245 39 -445 60 -520 12 -45 20 -117 42 -417 3 -49 10 -88 14 -88 17 0 40 49 54 116 8 38 15 73 15 77 0 5 4 6 9 3 11 -7 28 -135 35 -263 9 -146 18 -210 27 -188 6 16 8 14 8 -11 1 -17 3 -33 6 -36 3 -2 7 -58 9 -123 3 -65 9 -122 15 -128 15 -15 37 8 57 59 9 24 20 44 24 44 5 0 11 -38 15 -85 l7 -85 122 0 121 0 -6 93 c-25 348 -39 481 -94 872 -8 55 -23 177 -35 270 -11 94 -23 185 -26 203 -3 18 -1 32 5 32 5 0 72 -71 148 -157 76 -87 145 -165 154 -173 9 -8 31 -34 48 -57 18 -24 37 -43 42 -43 5 0 9 17 9 39 0 30 4 40 20 44 33 9 24 56 -36 187 -31 67 -54 124 -51 127 6 5 43 -63 89 -162 33 -71 36 -61 8 28 -49 158 -106 283 -175 382 -58 83 -89 165 -81 211 7 32 10 35 34 30 15 -3 52 -8 82 -11 52 -6 59 -11 133 -83 43 -43 95 -99 115 -127 20 -27 63 -81 95 -120 32 -38 72 -90 89 -115 l30 -45 -7 44 c-5 29 -4 41 3 37 6 -3 12 2 15 11 3 16 5 16 12 -2 4 -11 13 -33 20 -50 6 -16 18 -45 25 -63 7 -18 14 -31 16 -29 2 2 -10 38 -26 81 -17 42 -30 88 -30 101 0 13 -4 25 -9 27 -5 2 -36 47 -68 100 -32 53 -89 143 -128 200 -38 57 -98 159 -134 228 -35 69 -92 166 -127 215 -35 50 -81 119 -103 155 -22 36 -60 86 -83 111 -24 25 -34 34 -22 20 25 -32 88 -121 99 -141 4 -8 -8 3 -28 25 -20 22 -36 43 -37 46 0 11 -121 164 -136 172 -8 4 -14 13 -14 18 0 6 6 7 13 3 6 -4 4 2 -7 14 -10 12 -21 20 -25 19 -7 -2 -231 228 -231 238 0 3 9 1 19 -5 11 -5 31 -10 45 -10 13 0 39 -12 56 -26 l31 -27 -31 47 c-17 25 -36 46 -41 46 -6 0 -7 -6 -3 -12 4 -7 -2 -4 -14 6 -12 11 -22 24 -22 30 0 6 7 2 15 -8 8 -11 15 -15 15 -9 0 15 -36 44 -45 36 -4 -5 -5 -3 -2 4 11 18 -3 43 -24 43 -11 0 -25 11 -31 26 -10 21 -13 23 -18 9 -4 -12 -18 -1 -56 47 -78 97 -127 172 -115 176 6 2 37 -19 68 -47 31 -28 58 -49 61 -47 2 3 -20 34 -48 71 -29 36 -55 64 -58 61 -3 -3 1 -12 8 -21 7 -8 9 -15 4 -15 -5 0 -39 30 -76 67 -65 64 -68 66 -68 40 0 -24 -3 -26 -19 -18 -10 6 -21 8 -23 5 -3 -2 -33 26 -68 62 -43 47 -60 60 -55 43 8 -26 8 -26 6 -52 -2 -32 -101 94 -101 129 0 3 6 2 13 -2 7 -4 9 -3 4 2 -5 5 -12 9 -17 9 -4 0 -26 24 -49 53 l-42 52 38 -20 c21 -11 44 -20 52 -20 7 0 29 -16 48 -36 39 -42 103 -88 103 -74 0 5 -6 13 -14 17 -7 4 -37 30 -66 56 -42 38 -47 45 -24 35 16 -7 38 -18 50 -25 11 -7 24 -10 29 -6 4 5 5 3 2 -3 -9 -15 68 -87 163 -152 41 -28 91 -64 110 -79 l35 -28 -36 44 c-20 25 -44 50 -55 55 -47 27 -133 87 -169 120 l-40 36 55 -30 c30 -16 60 -30 65 -30 14 0 -82 60 -132 82 -47 21 -59 34 -17 17 43 -16 38 -4 -6 16 -22 10 -46 25 -53 33 -10 12 -6 12 20 -1 37 -19 43 -21 43 -8 0 5 -12 14 -27 20 -16 6 -39 21 -53 32 -25 21 -25 21 13 0 56 -31 56 -26 1 24 -27 25 -57 53 -67 62 -13 13 -14 19 -5 24 9 6 8 16 -5 44 -10 20 -12 33 -6 29 9 -5 10 1 5 22 -5 16 -9 41 -11 56 -6 44 -26 68 -52 62 -16 -4 -25 -1 -29 10 -9 23 2 31 21 16 9 -7 18 -10 22 -7 3 4 12 2 20 -4 20 -17 17 10 -6 47 -29 47 -79 75 -124 67 -39 -6 -48 -17 -22 -27 8 -3 21 2 30 10 14 14 19 13 50 -11 19 -14 35 -28 35 -29 0 -11 -42 -12 -62 -2 -21 11 -23 10 -24 -11 -1 -17 7 -28 27 -39 16 -8 29 -21 29 -29 0 -31 -56 -7 -70 31 -9 24 -30 34 -30 14 0 -5 -5 -10 -11 -10 -19 0 -100 -41 -120 -61 -13 -13 -27 -18 -39 -14 -11 3 -29 1 -40 -5 -12 -6 -33 -10 -48 -8 l-27 3 32 18 c17 9 38 14 46 11 8 -3 18 0 23 7 5 9 2 10 -10 6 -10 -4 -19 -1 -23 8 -3 10 -9 12 -17 7 -10 -8 -40 -18 -86 -29 -8 -1 -31 -5 -50 -7 -19 -2 -47 -9 -62 -15 -34 -13 -36 1 -5 26 28 22 67 72 67 86 0 5 -7 3 -16 -4 -23 -19 -44 -20 -37 -2 5 13 3 13 -16 4 -17 -10 -26 -8 -46 6 -23 17 -32 33 -18 33 3 0 15 -8 26 -17 18 -17 18 -17 1 14 -10 17 -22 30 -25 27 -4 -2 -9 -1 -11 4 -1 4 -23 23 -48 42 -25 19 -48 38 -51 43 -3 4 -15 9 -27 10 -11 0 -20 6 -19 12 4 22 97 25 97 3 0 -6 -7 -8 -15 -4 -8 3 -15 2 -15 -3 0 -5 9 -11 20 -14 10 -3 19 -2 18 2 -2 22 4 32 20 27 9 -3 44 -7 77 -10 49 -5 55 -4 30 5 -16 5 -48 11 -70 13 -62 5 -105 16 -105 27 0 6 5 7 12 3 7 -4 8 -3 4 4 -7 12 5 16 33 13 7 -2 10 2 6 9 -5 8 -1 11 11 8 25 -4 25 -34 0 -30 -10 2 -15 -1 -12 -6 9 -14 126 -8 136 7 4 8 13 11 19 7 6 -4 9 -2 6 6 -3 8 -15 14 -25 15 -11 1 -18 -2 -15 -7 3 -4 -12 -3 -33 2 -20 5 -50 12 -67 15 -16 3 -37 11 -45 17 -13 9 -13 9 -2 -6 11 -14 10 -18 -7 -27 -28 -15 -40 -13 -18 3 17 13 17 14 0 21 -16 6 -15 8 7 20 14 8 20 14 15 15 -6 0 -20 -7 -31 -15 -18 -12 -24 -12 -40 0 -18 13 -18 16 -4 42 9 15 20 28 25 28 6 0 16 4 23 8 6 5 12 6 12 3 0 -3 12 -1 26 4 15 6 23 6 19 1 -3 -5 -1 -13 5 -16 6 -4 9 -1 8 7 -2 9 12 13 47 15 50 2 105 -12 105 -27 0 -4 10 -10 23 -14 29 -7 69 -44 62 -57 -4 -5 -2 -9 4 -9 8 0 24 -32 26 -52 0 -5 5 -8 10 -7 6 1 9 6 7 12 -3 11 16 27 33 27 6 0 3 -5 -5 -11 -11 -8 -9 -9 10 -3 33 10 80 6 97 -8 8 -7 13 -7 13 0 0 5 -15 15 -32 22 l-33 11 24 13 c15 9 20 16 12 20 -6 4 -15 4 -21 1 -5 -3 -10 -1 -10 5 0 11 -61 41 -77 39 -20 -3 -33 2 -31 12 2 7 -12 16 -31 21 -26 7 -31 12 -20 19 11 7 10 9 -6 10 -84 6 -105 9 -147 22 -35 11 -59 12 -98 5 -29 -5 -60 -6 -69 -3 -9 4 -32 8 -51 10 -50 3 -81 15 -73 29 3 6 3 8 -2 4 -4 -4 -15 -3 -25 2 -11 6 -26 3 -47 -9z m234 -206 c5 -4 3 -5 -4 -2 -6 4 -13 2 -15 -5 -5 -13 -28 -2 -28 13 0 11 36 7 47 -6z m-21 -29 c17 -13 17 -14 1 -12 -19 2 -47 26 -31 26 6 0 19 -6 30 -14z m648 -284 c8 -14 -53 -54 -71 -48 -13 5 -9 12 17 31 36 27 46 30 54 17z m-86 -69 c-4 -20 -36 -28 -57 -14 -21 13 -4 31 30 31 24 0 30 -4 27 -17z m192 2 c11 -13 10 -14 -4 -9 -9 3 -16 10 -16 15 0 13 6 11 20 -6z m-105 -26 c10 -15 -1 -23 -20 -15 -9 3 -13 10 -10 16 8 13 22 13 30 -1z m-35 -19 c8 -5 11 -12 8 -16 -10 -9 -38 3 -38 16 0 12 10 13 30 0z m-93 -6 c13 -4 20 -10 17 -15 -8 -14 -48 -11 -70 6 -18 14 -18 14 6 15 14 0 35 -3 47 -6z m-58 -34 c7 0 9 -4 6 -10 -8 -13 -52 -13 -60 1 -5 6 -11 4 -19 -7 -9 -12 -20 -15 -39 -10 -37 9 -34 21 5 24 18 2 39 9 47 17 13 13 17 13 31 0 9 -8 22 -15 29 -15z m261 -23 c0 -6 -9 -2 -20 8 -11 10 -20 23 -20 28 0 6 9 2 20 -8 11 -10 20 -23 20 -28z m-460 19 c0 -2 -7 -7 -16 -10 -8 -3 -12 -2 -9 4 6 10 25 14 25 6z m317 -32 c13 -4 21 -10 18 -14 -6 -10 -55 0 -55 11 0 10 7 11 37 3z m104 -17 c-1 -12 -15 -9 -19 4 -3 6 1 10 8 8 6 -3 11 -8 11 -12z m-355 -10 c4 -4 -7 -7 -24 -7 -18 0 -32 5 -32 10 0 11 45 9 56 -3z m184 -7 c13 -9 13 -10 0 -9 -8 0 -24 4 -35 9 l-20 9 20 0 c11 0 27 -4 35 -9z m242 -10 c18 -11 29 -20 25 -20 -11 0 -67 29 -67 35 0 9 9 5 42 -15z m-152 1 c0 -19 -22 -23 -38 -7 -15 15 -14 16 11 16 15 0 27 -4 27 -9z m100 -10 c11 0 20 -5 20 -11 0 -6 -27 -10 -60 -10 -33 0 -60 4 -60 9 0 16 16 17 100 12z m-362 -18 c-15 -2 -42 -2 -60 0 -18 2 -6 4 27 4 33 0 48 -2 33 -4z m148 -8 c18 -14 17 -14 -11 -5 -16 5 -39 11 -50 13 -13 3 -9 5 11 6 16 0 39 -6 50 -14z m-531 -5 c-3 -5 -12 -10 -18 -10 -7 0 -6 4 3 10 19 12 23 12 15 0z m875 0 c11 -7 5 -8 -20 -4 -43 8 -51 14 -19 14 13 0 31 -5 39 -10z m-700 -39 c0 -12 -51 -53 -58 -46 -6 6 38 55 50 55 4 0 8 -4 8 -9z m350 -183 l23 -31 -24 7 c-13 4 -32 8 -41 7 -10 0 -20 4 -23 10 -4 5 -1 9 4 9 6 0 10 3 10 8 -6 34 22 29 51 -10z m70 -103 c47 -30 53 -30 91 -8 15 9 31 14 35 11 20 -21 -81 -105 -153 -126 -35 -11 -40 -15 -35 -35 3 -12 12 -28 19 -36 12 -11 11 -17 -8 -37 -12 -13 -25 -22 -28 -20 -3 2 -22 -5 -41 -15 -19 -11 -31 -19 -26 -19 5 0 7 -2 4 -5 -3 -3 -17 -1 -32 4 -24 10 -26 15 -26 63 0 56 33 141 63 167 19 15 23 36 5 25 -7 -4 -8 -3 -4 5 4 6 11 9 15 7 4 -3 20 6 37 19 36 30 36 30 84 0z m156 -30 c8 -8 22 -18 30 -23 8 -5 16 -15 17 -23 2 -8 6 -19 10 -26 11 -17 -8 -25 -35 -13 -42 17 -58 36 -54 61 3 13 5 27 5 32 1 11 11 8 27 -8z m348 -114 c-8 -8 -15 -13 -17 -10 -1 2 -19 23 -40 47 -20 23 -37 52 -37 65 0 19 8 14 54 -33 45 -47 51 -57 40 -69z m-65 14 c13 -20 35 -38 50 -41 14 -3 32 -7 39 -10 26 -8 4 -103 -25 -105 -7 -1 -19 -2 -25 -3 -7 -1 -17 0 -23 3 -5 3 -17 6 -25 6 -8 0 -24 14 -36 32 -12 18 -25 29 -29 25 -16 -15 4 90 20 108 24 26 26 26 54 -15z m-705 11 c-3 -7 6 -27 20 -44 32 -36 32 -44 4 -93 -16 -30 -19 -41 -10 -52 7 -8 14 -50 17 -93 l5 -79 -15 40 c-39 97 -58 335 -28 335 7 0 10 -6 7 -14z m859 -36 c35 -27 141 -178 140 -199 -1 -9 1 -23 3 -31 5 -13 6 -13 15 0 9 13 10 13 6 0 -2 -8 3 -21 12 -28 12 -11 13 -12 1 -6 -37 19 -142 120 -170 165 -32 49 -48 64 -36 33 6 -16 -16 -68 -34 -79 -6 -4 -4 10 4 30 9 21 16 59 16 86 0 55 6 58 43 29z m-508 0 c-3 -6 0 -12 7 -15 8 -3 14 -15 15 -26 1 -15 -3 -19 -13 -15 -9 3 -12 1 -9 -4 9 -14 -8 -12 -29 3 -18 13 -18 15 -1 40 16 25 44 40 30 17z m-402 -13 c7 4 6 -1 -2 -10 -18 -22 -30 -22 -26 1 5 27 6 28 12 14 2 -6 10 -9 16 -5z m191 -204 c10 -30 -1 -48 -20 -32 -8 6 -14 29 -14 52 0 38 1 40 14 22 7 -11 16 -30 20 -42z m711 27 c10 -11 24 -20 32 -20 17 0 17 -20 -2 -47 -13 -19 -19 -20 -45 -11 -17 5 -30 14 -30 19 0 4 -7 6 -15 3 -19 -8 -19 -5 0 40 17 41 34 45 60 16z m125 -100 c0 -4 11 -10 24 -14 19 -5 27 -20 45 -78 30 -99 42 -128 52 -128 4 0 11 -9 14 -20 8 -26 25 -26 20 0 -2 12 2 23 10 27 8 3 15 17 15 31 0 24 7 20 70 -48 38 -41 86 -98 105 -127 19 -29 41 -58 48 -65 75 -79 105 -157 38 -99 -13 11 -28 18 -36 15 -13 -5 -56 43 -112 126 -43 63 -103 128 -103 111 0 -8 -7 -11 -20 -8 -10 3 -18 0 -17 -5 1 -6 -4 -13 -12 -16 -8 -3 -11 0 -7 7 4 6 1 11 -8 11 -9 0 -16 4 -16 8 0 5 -8 18 -17 30 -10 11 -23 29 -30 39 -12 17 -12 17 -7 -2 3 -11 -5 -2 -19 20 -15 22 -29 53 -32 68 -4 16 -14 31 -22 34 -12 5 -33 40 -37 63 -1 3 -4 10 -8 16 -4 6 -4 20 -1 32 l5 22 29 -21 c16 -11 29 -24 29 -29z m-236 19 c13 -19 13 -24 -1 -45 -17 -27 -41 -31 -49 -9 -7 18 -30 20 -37 3 -3 -7 -6 -3 -6 10 -1 24 14 45 39 55 27 10 39 7 54 -14z m56 -31 c5 -13 9 -18 9 -13 1 6 18 9 40 7 36 -4 40 -7 46 -40 4 -23 3 -38 -4 -40 -6 -2 -11 -9 -11 -16 0 -8 -14 -12 -37 -12 l-38 0 2 46 c1 43 1 43 -6 10 -9 -41 -18 -27 -25 38 -5 45 9 56 24 20z m335 -58 c23 -46 37 -104 17 -72 -10 14 -42 6 -42 -12 -1 -6 -12 11 -26 37 -14 26 -22 52 -19 56 3 5 -1 11 -7 14 -8 3 -3 9 12 15 37 16 38 16 65 -38z m115 -354 c30 -47 59 -86 63 -86 5 0 5 6 2 13 -4 6 12 -8 36 -33 23 -25 46 -44 52 -42 5 1 7 -3 4 -10 -2 -7 -10 -12 -17 -10 -7 2 -16 -2 -20 -8 -4 -7 -14 -1 -25 17 l-18 28 21 -19 c13 -11 22 -14 22 -7 0 6 -9 19 -19 28 -11 9 -18 20 -15 25 3 4 0 8 -5 8 -6 0 -11 -8 -11 -18 0 -10 -7 -19 -15 -19 -8 0 -13 2 -10 5 8 8 -44 44 -55 37 -5 -3 -10 1 -10 10 0 11 -5 15 -14 12 -8 -3 -26 10 -42 30 -43 54 -48 73 -24 98 11 12 20 27 20 34 0 23 23 -3 80 -93z m-2240 -100 c0 -2 -7 -6 -15 -10 -8 -3 -15 -1 -15 4 0 6 7 10 15 10 8 0 15 -2 15 -4z m2500 -72 c0 24 159 -184 195 -255 27 -53 34 -92 13 -71 -19 19 -33 14 -15 -6 20 -22 22 -45 5 -40 -7 3 -44 42 -83 88 -38 46 -108 123 -153 171 -82 85 -83 88 -61 99 19 11 25 10 37 -6 13 -18 14 -18 7 5 -9 31 13 46 37 24 10 -9 18 -13 18 -9z m-125 -98 c7 -8 15 -13 18 -9 4 3 7 -1 7 -10 0 -9 5 -17 11 -17 5 0 7 -5 3 -12 -5 -8 -2 -9 10 -5 9 4 15 3 11 -2 -3 -5 3 -17 12 -27 9 -9 18 -24 20 -32 1 -9 13 -27 27 -41 14 -14 38 -42 53 -61 l28 -34 -50 34 c-71 50 -227 208 -219 222 4 6 3 8 -4 4 -6 -3 -13 -2 -17 4 -11 17 77 4 90 -14z m-1261 -97 c-9 -10 -22 -19 -28 -19 -6 0 0 7 12 16 12 8 19 20 16 26 -5 7 -2 8 5 4 9 -6 8 -13 -5 -27z m56 -14 c0 -2 -6 -5 -13 -8 -8 -3 -14 1 -14 8 0 7 6 11 14 8 7 -3 13 -6 13 -8z m-43 -2 c-4 -3 -2 -11 3 -18 7 -8 5 -12 -5 -12 -8 0 -15 6 -15 12 0 12 10 25 18 25 3 0 2 -3 -1 -7z m51 -37 c-10 -7 -15 -16 -12 -19 3 -3 -1 -4 -10 -3 -22 3 -32 16 -13 16 10 0 17 5 17 10 0 6 8 10 18 10 16 -1 16 -1 0 -14z m-112 -12 c17 -12 21 -20 14 -29 -5 -6 -8 -14 -5 -16 2 -3 -4 -5 -13 -6 -9 -1 -24 -3 -32 -5 -10 -2 -15 5 -15 18 -1 12 -7 29 -14 38 -12 14 -10 16 13 16 15 0 38 -7 52 -16z m136 -39 c12 0 21 -15 10 -16 -31 -4 -35 -3 -38 14 -1 11 2 14 9 10 7 -4 15 -8 19 -8z m-532 -199 c0 -3 -4 -8 -10 -11 -5 -3 -10 -1 -10 4 0 6 5 11 10 11 6 0 10 -2 10 -4z m-406 -130 c-3 -8 -13 -17 -22 -21 -13 -5 -13 -2 3 15 21 24 26 25 19 6z m-814 -102 c0 -8 -5 -12 -10 -9 -6 4 -8 11 -5 16 9 14 15 11 15 -7z m319 -111 c-8 -9 -9 -14 -4 -11 6 3 19 2 30 -3 16 -6 13 -7 -10 -4 -16 2 -32 4 -35 5 -3 1 -8 2 -12 1 -5 0 -8 3 -8 8 0 10 17 19 39 20 11 1 11 -2 0 -16z m1761 -53 c0 -5 -4 -10 -10 -10 -5 0 -10 5 -10 10 0 6 5 10 10 10 6 0 10 -4 10 -10z m-2181 -646 c-44 -32 -49 -30 -14 6 15 16 32 27 37 24 5 -3 -5 -17 -23 -30z m108 -54 c1 -11 -2 -20 -7 -20 -5 0 -14 9 -20 20 -9 17 -8 20 8 20 11 0 18 -8 19 -20z m-146 -100 c-24 -11 -46 -20 -50 -20 -12 1 64 39 79 39 8 0 -5 -8 -29 -19z m545 -59 c-4 -5 3 -7 14 -4 49 13 102 -37 68 -64 -21 -16 -50 -24 -42 -12 4 7 -1 7 -15 -1 -12 -6 -42 -9 -66 -7 -27 3 -51 0 -62 -8 -15 -11 -24 -11 -51 0 -47 20 -41 39 14 43 35 2 55 10 81 32 31 28 72 42 59 21z m-1022 -120 c3 -5 -1 -14 -9 -21 -13 -10 -15 -9 -15 9 0 21 14 28 24 12z m286 -61 c0 -5 -4 -10 -10 -10 -5 0 -10 5 -10 10 0 6 5 10 10 10 6 0 10 -4 10 -10z m800 -40 c0 -5 -13 -10 -30 -10 -16 0 -30 5 -30 10 0 6 14 10 30 10 17 0 30 -4 30 -10z m198 -19 c22 -16 43 -35 47 -41 4 -6 17 -15 29 -20 18 -7 16 -9 -14 -9 -19 0 -52 3 -73 8 -35 9 -37 8 -24 -7 8 -10 20 -27 26 -40 12 -22 11 -22 -11 -10 -37 21 -78 61 -78 75 0 11 5 11 20 3 18 -10 19 -9 9 14 -13 28 -6 56 14 56 8 0 32 -13 55 -29z m-1288 -75 c0 -36 12 -38 31 -6 17 27 24 30 69 30 64 0 72 -17 34 -71 -39 -57 -84 -76 -84 -35 0 17 -34 27 -69 20 -30 -5 -48 4 -51 26 -5 36 1 70 17 85 16 16 18 16 35 -5 10 -12 18 -32 18 -44z m372 23 c27 -20 29 -23 12 -32 -13 -8 -21 -5 -36 13 -34 42 -22 51 24 19z m1098 -129 c12 -7 12 -12 2 -22 -14 -14 -42 -2 -50 20 -4 14 27 16 48 2z m-750 -18 c0 -5 -7 -9 -15 -9 -8 0 -12 4 -9 9 3 4 9 8 15 8 5 0 9 -4 9 -8z m-577 -219 c-6 -16 -5 -17 12 -3 17 14 17 14 4 -7 -11 -19 -15 -20 -22 -8 -4 8 -5 20 -2 25 10 16 15 11 8 -7z m-13 -38 c0 -5 -5 -3 -10 5 -5 8 -10 20 -10 25 0 6 5 3 10 -5 5 -8 10 -19 10 -25z m848 28 c-21 -2 -55 -2 -75 0 -21 2 -4 4 37 4 41 0 58 -2 38 -4z m-578 -23 c-8 -5 -17 -7 -19 -4 -3 3 1 9 9 14 8 5 17 7 19 4 3 -3 -1 -9 -9 -14z m942 -44 c7 4 8 3 4 -4 -10 -16 -18 -15 -42 4 -18 14 -18 15 4 4 12 -6 28 -8 34 -4z" fill="#ffffff"/>
<path d="M3396 2987 c3 -10 9 -15 12 -12 3 3 0 11 -7 18 -10 9 -11 8 -5 -6z" fill="#ffffff"/>
<path d="M3856 2375 c85 -101 89 -104 76 -80 -6 11 -41 52 -78 90 l-66 70 68 -80z" fill="#ffffff"/>
<path d="M3955 2250 c10 -11 20 -20 23 -20 3 0 -3 9 -13 20 -10 11 -20 20 -23 20 -3 0 3 -9 13 -20z" fill="#ffffff"/>
<path d="M3660 2421 c0 -6 4 -13 10 -16 6 -3 7 1 4 9 -7 18 -14 21 -14 7z" fill="#ffffff"/>
<path d="M2172 4548 c-26 -26 -10 -59 32 -65 13 -2 16 1 12 12 -3 8 0 14 7 12 16 -3 16 45 -1 51 -7 2 -10 -2 -6 -11 4 -12 0 -14 -16 -10 -16 4 -18 8 -8 14 7 5 8 9 3 9 -6 0 -16 -5 -23 -12z" fill="#ffffff"/>
<path d="M2500 4545 c0 -2 10 -10 23 -16 20 -11 21 -11 8 4 -13 16 -31 23 -31 12z" fill="#ffffff"/>
<path d="M2605 4513 c3 -3 0 -12 -6 -20 -9 -10 -8 -13 4 -13 15 0 18 24 4 35 -4 3 -5 2 -2 -2z" fill="#ffffff"/>
<path d="M1998 4503 c7 -3 16 -2 19 1 4 3 -2 6 -13 5 -11 0 -14 -3 -6 -6z" fill="#ffffff"/>
<path d="M2646 4418 c23 -28 82 -78 91 -78 11 0 -4 19 -48 61 -57 55 -85 66 -43 17z" fill="#ffffff"/>
<path d="M2553 4430 c2 -8 8 -15 13 -15 5 0 14 -4 21 -8 6 -4 14 -3 17 2 4 5 2 12 -4 16 -5 3 -10 3 -10 -2 0 -4 -5 -1 -10 7 -9 13 -10 13 -10 0 0 -13 -1 -13 -11 0 -9 13 -10 13 -6 0z" fill="#ffffff"/>
<path d="M2210 4400 c0 -5 6 -10 14 -10 8 0 18 5 21 10 3 6 -3 10 -14 10 -12 0 -21 -4 -21 -10z" fill="#ffffff"/>
<path d="M2100 4361 c0 -5 10 -11 23 -15 38 -10 43 -7 13 9 -33 17 -36 18 -36 6z" fill="#ffffff"/>
<path d="M2640 4360 c0 -5 15 -16 33 -24 17 -8 45 -26 61 -40 16 -14 33 -26 38 -26 11 0 -6 32 -24 48 -23 19 -108 52 -108 42z" fill="#ffffff"/>
<path d="M2095 4331 c-3 -5 -2 -12 3 -15 5 -3 9 1 9 9 0 17 -3 19 -12 6z" fill="#ffffff"/>
<path d="M2154 4299 c-5 -9 -2 -10 9 -6 12 4 17 1 18 -11 0 -10 3 -12 6 -4 2 6 9 12 14 12 6 0 7 -6 3 -12 -6 -10 -5 -10 7 -1 8 6 28 13 44 16 22 3 17 4 -17 6 -25 0 -53 4 -61 7 -8 3 -18 0 -23 -7z" fill="#ffffff"/>
<path d="M2337 4292 c6 -15 5 -15 -10 -3 -15 12 -17 12 -11 -3 3 -9 2 -16 -4 -16 -5 0 -12 -8 -14 -18 -5 -17 -3 -17 28 -3 35 17 45 45 20 54 -11 4 -13 1 -9 -11z" fill="#ffffff"/>
<path d="M2244 4268 c-4 -6 -3 -8 4 -4 5 3 12 1 14 -6 3 -8 6 -9 11 -1 4 6 0 13 -8 17 -8 3 -17 0 -21 -6z" fill="#ffffff"/>
<path d="M2439 4217 c36 -37 50 -46 73 -43 29 3 52 16 30 16 -7 0 -13 -1 -15 -2 -2 -2 -15 5 -30 15 -15 9 -27 15 -27 11 0 -3 -17 6 -37 21 l-38 28 44 -46z m51 -22 c11 -13 10 -14 -4 -9 -9 3 -16 10 -16 15 0 13 6 11 20 -6z" fill="#ffffff"/>
<path d="M2440 4180 c0 -5 5 -10 11 -10 5 0 7 5 4 10 -3 6 -8 10 -11 10 -2 0 -4 -4 -4 -10z" fill="#ffffff"/>
<path d="M2256 4143 c-4 -11 -1 -11 14 -3 24 13 25 17 5 17 -8 0 -16 -6 -19 -14z" fill="#ffffff"/>
<path d="M2218 4043 c-10 -2 -18 -9 -18 -14 0 -6 8 -5 20 1 11 6 20 13 20 15 0 3 -1 4 -2 4 -2 -1 -11 -3 -20 -6z" fill="#ffffff"/>
<path d="M2000 3845 c-14 -8 -32 -17 -40 -21 -21 -10 -60 -46 -60 -55 0 -15 36 6 86 48 52 45 55 52 14 28z" fill="#ffffff"/>
<path d="M2353 3833 c9 -2 25 -2 35 0 9 3 1 5 -18 5 -19 0 -27 -2 -17 -5z" fill="#ffffff"/>
<path d="M2136 3760 c-30 -40 -46 -56 -46 -44 -1 12 -6 7 -15 -13 -8 -18 -27 -39 -42 -45 -15 -7 -31 -18 -36 -25 -4 -7 -14 -19 -23 -27 -14 -15 -30 -80 -41 -176 l-5 -45 20 31 c11 16 28 50 39 75 11 24 41 75 67 113 25 38 46 73 46 77 0 5 4 9 9 9 6 0 6 -12 0 -32 -13 -45 5 -56 25 -15 9 19 16 39 16 45 0 5 6 15 14 21 8 7 12 21 9 32 -3 11 0 31 7 45 27 50 0 34 -44 -26z" fill="#ffffff"/>
<path d="M2449 3794 c31 -19 45 -23 51 -14 4 6 13 10 21 9 8 -1 28 2 44 6 l30 9 -40 7 c-29 5 -42 3 -48 -7 -10 -18 -31 -18 -47 1 -7 8 -22 15 -34 15 -16 0 -10 -7 23 -26z" fill="#ffffff"/>
<path d="M2270 3757 c-42 -19 -43 -21 -20 -27 24 -6 24 -6 -13 -35 -33 -27 -49 -55 -30 -55 12 0 63 53 63 66 0 7 12 26 26 43 14 17 24 31 22 30 -1 0 -23 -10 -48 -22z" fill="#ffffff"/>
<path d="M2568 3763 c7 -3 16 -2 19 1 4 3 -2 6 -13 5 -11 0 -14 -3 -6 -6z" fill="#ffffff"/>
<path d="M2210 3585 c-13 -14 -19 -25 -13 -25 12 0 48 38 41 45 -2 3 -15 -6 -28 -20z" fill="#ffffff"/>
<path d="M2081 3574 c0 -11 3 -14 6 -6 3 7 2 16 -1 19 -3 4 -6 -2 -5 -13z" fill="#ffffff"/>
<path d="M2167 3543 c-4 -3 -7 -11 -7 -17 0 -6 5 -5 12 2 6 6 9 14 7 17 -3 3 -9 2 -12 -2z" fill="#ffffff"/>
<path d="M3285 3491 c27 -28 51 -51 52 -51 7 0 -24 46 -42 62 -48 44 -56 36 -10 -11z" fill="#ffffff"/>
<path d="M2064 3473 c-14 -24 -18 -113 -5 -113 15 0 23 39 19 89 -2 35 -5 39 -14 24z" fill="#ffffff"/>
<path d="M2145 3417 c-41 -84 -41 -86 -16 -57 l22 25 -5 -30 c-2 -17 -1 -37 5 -45 6 -10 9 1 9 36 0 28 5 65 11 82 20 58 4 52 -26 -11z" fill="#ffffff"/>
<path d="M2007 3403 c-10 -10 -8 -61 2 -67 11 -7 21 17 21 50 0 23 -10 31 -23 17z" fill="#ffffff"/>
<path d="M3345 3365 c33 -58 67 -104 78 -104 12 -1 8 17 -8 33 -9 8 -15 18 -15 21 1 4 -2 10 -6 13 -4 4 -4 1 1 -7 5 -9 4 -12 -3 -7 -6 4 -9 12 -6 19 2 7 -12 28 -32 47 l-37 35 28 -50z" fill="#ffffff"/>
<path d="M1983 3315 c0 -22 2 -30 4 -17 2 12 2 30 0 40 -3 9 -5 -1 -4 -23z" fill="#ffffff"/>
<path d="M2102 3283 c-2 -39 -19 -52 -30 -23 -5 14 -8 2 -9 -40 -2 -49 1 -62 17 -70 17 -9 19 -5 25 32 4 24 5 63 2 88 -2 33 -4 36 -5 13z" fill="#ffffff"/>
<path d="M341 3208 c-1 -11 -6 -15 -16 -12 -8 4 -15 2 -15 -3 0 -5 -10 -10 -22 -10 -13 -1 -24 -7 -26 -13 -2 -5 -10 -10 -18 -10 -22 0 -17 -34 9 -58 13 -12 27 -22 32 -22 4 0 32 16 61 35 46 31 52 38 45 58 -5 12 -15 22 -22 22 -8 0 -17 7 -21 15 -5 12 -7 12 -7 -2z" fill="#ffffff"/>
<path d="M3452 3169 c6 -20 16 -36 24 -36 14 0 8 15 -20 52 -14 19 -14 17 -4 -16z" fill="#ffffff"/>
<path d="M455 3110 c-10 -11 -25 -15 -45 -12 -21 3 -32 0 -36 -12 -3 -9 -10 -13 -15 -10 -12 7 -54 -23 -54 -39 -1 -6 -7 -11 -14 -9 -7 1 -36 -4 -65 -12 -81 -23 -152 -29 -168 -12 -8 7 -24 17 -36 20 -20 7 -22 4 -22 -31 l0 -38 92 1 c51 1 129 10 173 20 83 19 122 21 188 9 37 -7 80 4 164 41 38 17 66 17 159 1 79 -14 101 -12 81 7 -26 25 -131 59 -196 63 -92 5 -101 6 -101 15 0 4 -5 8 -11 8 -5 0 -7 -6 -4 -12 4 -7 0 -6 -7 3 -17 21 -63 21 -83 -1z" fill="#ffffff"/>
<path d="M987 3123 c-10 -10 -8 -23 4 -23 5 0 8 4 5 9 -4 5 0 12 6 14 7 3 8 6 2 6 -6 1 -14 -2 -17 -6z" fill="#ffffff"/>
<path d="M75 3010 c-3 -5 1 -10 9 -10 9 0 16 5 16 10 0 6 -4 10 -9 10 -6 0 -13 -4 -16 -10z" fill="#ffffff"/>
<path d="M2211 2994 c0 -11 3 -14 6 -6 3 7 2 16 -1 19 -3 4 -6 -2 -5 -13z" fill="#ffffff"/>
<path d="M1195 2900 c-3 -5 -1 -10 4 -10 6 0 11 5 11 10 0 6 -2 10 -4 10 -3 0 -8 -4 -11 -10z" fill="#ffffff"/>
<path d="M3650 2891 c5 -11 15 -23 21 -27 6 -3 3 5 -6 20 -20 30 -30 35 -15 7z" fill="#ffffff"/>
<path d="M2287 2714 c-10 -11 -8 -106 3 -124 7 -12 12 -12 21 -3 10 10 9 26 -2 73 -8 34 -18 58 -22 54z" fill="#ffffff"/>
<path d="M3770 2690 c0 -5 5 -10 11 -10 5 0 7 5 4 10 -3 6 -8 10 -11 10 -2 0 -4 -4 -4 -10z" fill="#ffffff"/>
<path d="M3819 2662 c6 -12 16 -24 22 -28 8 -4 8 -1 0 14 -6 12 -16 24 -22 28 -8 4 -8 1 0 -14z" fill="#ffffff"/>
<path d="M260 2640 c0 -5 -9 -10 -21 -10 -11 0 -17 -4 -14 -10 3 -5 -1 -10 -10 -10 -12 0 -14 -4 -5 -19 14 -27 13 -31 -7 -31 -13 0 -6 -11 24 -40 40 -38 73 -52 73 -30 0 5 10 9 21 7 29 -3 70 70 48 84 -10 6 -11 9 -1 9 10 0 10 5 2 20 -14 27 -110 53 -110 30z m74 -126 c3 -8 2 -12 -4 -9 -6 3 -10 10 -10 16 0 14 7 11 14 -7z" fill="#ffffff"/>
<path d="M1760 2519 c0 -5 5 -7 10 -4 6 3 10 8 10 11 0 2 -4 4 -10 4 -5 0 -10 -5 -10 -11z" fill="#ffffff"/>
<path d="M1787 2514 c-4 -4 -7 -12 -7 -17 0 -6 3 -7 6 -4 4 3 15 2 25 -4 15 -7 17 -6 13 6 -3 8 -10 13 -14 10 -5 -3 -10 0 -12 6 -2 5 -7 7 -11 3z" fill="#ffffff"/>
<path d="M440 2364 c0 -7 -6 -17 -12 -21 -7 -4 -18 -17 -24 -27 -6 -11 -17 -22 -25 -24 -11 -4 -12 -2 -1 9 17 19 15 28 -7 22 -10 -2 -23 -15 -29 -29 -10 -20 -8 -25 9 -34 21 -12 43 -5 34 11 -4 5 1 9 9 9 12 0 16 -10 16 -40 0 -22 -4 -40 -9 -40 -5 0 -7 -9 -4 -21 4 -14 12 -19 24 -16 29 8 23 -7 -20 -46 -28 -25 -46 -34 -60 -30 -16 4 -23 -1 -30 -20 -17 -44 -54 -61 -119 -53 -33 4 -60 13 -65 21 -4 8 -14 12 -22 8 -20 -7 -62 21 -70 46 -3 11 1 36 10 55 9 19 14 40 10 46 -4 6 1 20 11 31 26 29 25 43 -7 79 -16 17 -29 38 -29 46 0 8 -8 14 -17 14 -15 0 -15 -2 -4 -9 12 -8 12 -13 3 -24 -9 -11 -12 -106 -12 -369 1 -341 2 -355 21 -371 11 -10 17 -23 13 -29 -5 -7 -3 -8 6 -3 7 4 27 11 45 15 27 6 32 5 28 -7 -11 -27 34 4 54 37 9 17 21 30 25 30 4 0 8 3 8 8 0 4 -25 5 -56 4 -69 -5 -65 9 13 43 l55 25 -31 37 c-16 20 -28 40 -25 44 2 4 -1 11 -7 15 -8 4 -9 3 -5 -4 4 -7 3 -12 -3 -12 -9 0 -41 50 -41 63 0 11 52 -7 57 -19 3 -8 9 -11 14 -8 8 5 13 -9 10 -28 0 -4 6 -5 14 -2 8 4 15 15 15 25 0 13 7 19 23 19 13 0 26 -3 30 -6 6 -6 -24 -93 -44 -128 -10 -17 -8 -18 20 -13 18 4 33 2 37 -5 5 -7 2 -8 -7 -3 -11 6 -12 5 -2 -5 10 -11 16 -9 33 11 19 22 20 22 8 2 -9 -17 -10 -25 -1 -34 8 -8 11 -7 10 7 -2 14 6 18 31 20 17 0 32 -3 32 -8 0 -5 4 -6 10 -3 6 3 7 -1 4 -9 -3 -9 -1 -16 6 -16 6 0 8 -6 4 -12 -5 -10 -4 -10 6 -1 15 13 18 56 7 93 -4 14 4 3 17 -25 13 -27 25 -42 25 -32 1 20 1 20 38 7 25 -9 26 -9 10 4 -14 11 -15 15 -5 20 9 4 9 5 -2 5 -29 -2 -40 1 -40 11 0 6 8 10 18 11 10 0 12 3 4 6 -18 7 -4 23 21 23 16 0 19 3 8 9 -10 6 -4 12 23 22 l36 13 -27 28 c-31 33 -80 51 -125 46 -32 -3 -33 -1 -51 55 -11 32 -16 61 -13 64 3 4 35 5 70 4 36 -1 67 3 71 9 3 5 41 10 85 10 43 0 85 3 93 6 23 8 9 37 -30 63 l-37 24 -80 -42 c-45 -23 -85 -41 -91 -41 -5 0 10 11 35 24 30 15 44 29 42 40 -2 9 4 19 13 22 21 9 19 18 -15 54 -24 26 -28 35 -20 56 14 36 12 68 -5 112 -15 36 -45 54 -45 26z m-243 -546 c-3 -8 -6 -5 -6 6 -1 11 2 17 5 13 3 -3 4 -12 1 -19z m-97 -113 c0 -5 -75 -45 -85 -45 -29 0 45 47 78 49 4 1 7 -1 7 -4z" fill="#ffffff"/>
<path d="M120 2280 c0 -5 7 -10 15 -10 8 0 15 -4 15 -9 0 -5 -8 -7 -19 -4 -10 3 -22 0 -25 -6 -4 -6 0 -11 8 -11 8 0 18 -5 22 -11 5 -8 -3 -10 -24 -7 -21 3 -33 0 -37 -10 -7 -20 -7 -22 11 -22 8 0 12 -4 9 -10 -3 -5 1 -10 10 -10 9 0 22 -6 30 -13 11 -11 9 -16 -7 -26 -15 -9 -17 -16 -9 -24 15 -15 54 21 46 42 -5 12 -3 13 5 5 9 -9 9 -17 1 -32 -14 -27 -14 -43 0 -18 9 15 13 16 20 5 7 -11 9 -10 9 4 0 23 12 22 28 -3 7 -12 17 -18 23 -14 6 4 4 15 -6 31 -9 14 -15 27 -12 29 2 2 10 -7 17 -21 14 -26 36 -35 27 -11 -3 8 -1 17 6 19 7 2 4 3 -5 2 -10 -2 -21 1 -24 6 -3 5 2 9 11 9 9 0 25 5 36 10 15 9 17 13 7 24 -7 7 -20 11 -28 8 -13 -5 -13 -3 -1 11 9 12 10 17 2 17 -7 0 -9 5 -6 10 3 6 -1 13 -10 17 -10 3 -21 0 -26 -8 -6 -9 -9 -10 -9 -2 0 7 -17 15 -37 19 -21 4 -46 11 -55 16 -12 5 -18 5 -18 -2z" fill="#ffffff"/>
<path d="M765 2036 l-40 -12 56 -31 c31 -17 68 -45 82 -62 30 -36 37 -38 37 -13 0 10 7 28 16 41 16 22 15 24 -17 57 -36 37 -64 42 -134 20z" fill="#ffffff"/>
<path d="M1258 2028 c3 -11 13 -18 29 -18 16 0 23 5 20 13 -2 6 -10 11 -16 10 -6 -2 -11 1 -11 5 0 5 -6 9 -14 9 -8 0 -11 -8 -8 -19z" fill="#ffffff"/>
<path d="M225 1670 c3 -5 8 -10 11 -10 2 0 4 5 4 10 0 6 -5 10 -11 10 -5 0 -7 -4 -4 -10z" fill="#ffffff"/>
<path d="M366 1653 c-6 -14 -5 -15 5 -6 7 7 10 15 7 18 -3 3 -9 -2 -12 -12z" fill="#ffffff"/>
<path d="M1625 1560 c-103 -17 -185 -97 -225 -219 -30 -94 -26 -103 40 -86 29 8 58 11 65 9 7 -3 15 2 18 10 4 10 13 13 24 9 16 -6 16 -5 5 10 -12 14 -8 22 28 59 24 25 37 34 30 21 -8 -18 -8 -22 4 -17 8 3 13 13 11 22 -1 9 2 22 7 29 5 7 7 16 4 21 -3 5 4 9 17 8 13 -1 22 5 22 14 0 8 -8 14 -17 14 -13 -1 -18 6 -18 26 0 31 23 60 46 60 20 0 17 16 -3 16 -10 0 -36 -2 -58 -6z m5 -91 c0 -17 -39 -68 -61 -79 -11 -6 -19 -7 -19 -2 0 6 10 12 21 15 18 5 20 11 16 34 -4 15 -4 22 -1 16 9 -20 24 -15 24 7 0 11 5 20 10 20 6 0 10 -5 10 -11z m-85 -108 c3 -5 2 -12 -3 -15 -5 -3 -9 1 -9 9 0 17 3 19 12 6z m-30 -30 c-3 -6 -11 -11 -16 -11 -5 0 -4 6 3 14 14 16 24 13 13 -3z" fill="#ffffff"/>
<path d="M1704 1526 c-3 -8 -13 -12 -22 -9 -14 4 -14 3 -3 -5 12 -8 12 -14 3 -25 -10 -11 -9 -17 5 -28 9 -8 14 -9 10 -3 -4 7 5 17 23 24 17 7 30 17 30 22 0 5 6 6 13 2 7 -4 9 -3 4 2 -12 13 -30 12 -46 -4 -18 -18 -25 -8 -11 17 6 12 8 21 5 21 -3 0 -8 -6 -11 -14z" fill="#ffffff"/>
<path d="M1650 1495 c0 -9 6 -12 15 -9 8 4 15 7 15 9 0 2 -7 5 -15 9 -9 3 -15 0 -15 -9z" fill="#ffffff"/>
<path d="M1651 1414 c0 -11 3 -14 6 -6 3 7 2 16 -1 19 -3 4 -6 -2 -5 -13z" fill="#ffffff"/>
<path d="M1770 1415 c-11 -13 -10 -14 4 -9 9 3 16 10 16 15 0 13 -6 11 -20 -6z" fill="#ffffff"/>
<path d="M1709 1381 c-20 -9 -43 -22 -51 -29 -8 -6 -18 -9 -21 -5 -4 3 -12 1 -19 -4 -7 -6 -21 -9 -31 -8 -18 3 -41 -27 -30 -39 3 -3 28 -6 55 -6 30 0 47 -4 43 -10 -8 -13 -4 -13 39 5 41 18 49 30 9 14 -14 -5 -34 -7 -42 -4 -14 6 -14 8 2 20 12 9 15 15 7 20 -7 4 3 15 25 26 20 11 40 17 44 15 4 -3 8 1 8 9 0 8 -1 15 -1 14 -1 0 -17 -8 -37 -18z m-49 -51 c0 -5 -5 -10 -11 -10 -5 0 -7 5 -4 10 3 6 8 10 11 10 2 0 4 -4 4 -10z" fill="#ffffff"/>
<path d="M0 1292 c0 -96 1 -100 23 -104 21 -4 22 -2 13 18 -6 12 -15 20 -20 17 -5 -4 -6 8 -2 28 4 19 9 46 11 61 2 15 9 37 15 48 6 12 7 20 1 20 -5 0 -16 3 -25 6 -14 5 -16 -7 -16 -94z" fill="#ffffff"/>
<path d="M1820 1330 c-19 -11 -43 -23 -52 -26 -10 -4 -18 -11 -18 -16 0 -5 -3 -7 -7 -5 -5 3 -21 0 -38 -7 l-30 -13 23 -12 c12 -6 22 -7 22 -2 0 5 -6 12 -12 14 -20 8 44 6 77 -3 20 -5 23 -8 10 -9 -17 -1 -15 -4 9 -16 16 -9 31 -13 34 -10 3 3 0 5 -6 5 -7 0 -12 7 -12 15 0 8 5 15 11 15 5 0 7 -6 3 -12 -4 -7 -3 -10 1 -5 13 11 16 45 5 52 -6 3 -7 -1 -4 -9 3 -9 2 -16 -4 -16 -6 0 -12 6 -15 13 -3 9 -8 9 -21 -2 -9 -8 -19 -11 -22 -8 -3 2 15 20 40 38 41 29 52 39 43 39 -1 0 -18 -9 -37 -20z" fill="#ffffff"/>
<path d="M390 1282 c6 -13 14 -21 18 -18 3 4 -2 14 -12 24 -18 16 -18 16 -6 -6z" fill="#ffffff"/>
<path d="M1592 1276 c2 -1 12 -8 22 -16 11 -8 17 -10 13 -3 -4 6 -1 13 5 16 7 2 0 4 -15 4 -15 0 -27 0 -25 -1z" fill="#ffffff"/>
<path d="M1920 1230 c0 -5 7 -10 16 -10 8 0 12 5 9 10 -3 6 -10 10 -16 10 -5 0 -9 -4 -9 -10z" fill="#ffffff"/>
<path d="M1369 1208 c-3 -16 -7 -59 -5 -57 16 18 25 49 16 54 -5 3 -10 5 -11 3z" fill="#ffffff"/>
<path d="M1347 1108 c-18 -44 -28 -98 -19 -98 5 0 15 29 23 65 8 36 14 65 12 65 -1 0 -9 -15 -16 -32z" fill="#ffffff"/>
<path d="M2346 984 c-20 -20 -22 -37 -11 -91 6 -26 41 -31 78 -12 29 16 37 28 37 60 0 50 -69 79 -104 43z" fill="#ffffff"/>
<path d="M238 985 c-2 -3 -29 -9 -59 -15 -30 -5 -82 -17 -117 -26 l-62 -17 1 -99 c1 -89 8 -115 23 -89 4 5 0 12 -6 14 -10 4 -10 6 0 6 6 1 12 10 12 21 0 10 6 23 13 27 8 4 22 21 32 36 21 32 67 59 88 52 8 -4 20 7 32 28 10 19 30 38 44 43 16 6 22 12 15 17 -6 3 -13 4 -16 2z" fill="#ffffff"/>
<path d="M2131 866 c-9 -11 -9 -16 1 -22 7 -4 10 -4 6 1 -4 4 -3 14 3 22 6 7 9 13 6 13 -2 0 -10 -6 -16 -14z" fill="#ffffff"/>
<path d="M2306 769 c2 -3 -8 -12 -21 -19 -14 -7 -25 -20 -25 -28 0 -12 5 -11 26 3 15 9 23 12 19 5 -6 -9 -3 -9 14 -1 12 7 25 10 29 7 4 -2 15 7 25 20 l18 24 -44 -2 c-25 -2 -43 -6 -41 -9z" fill="#ffffff"/>
<path d="M262 708 c6 -18 28 -21 28 -4 0 9 -7 16 -16 16 -9 0 -14 -5 -12 -12z" fill="#ffffff"/>
<path d="M2225 630 c3 -5 8 -10 11 -10 2 0 4 5 4 10 0 6 -5 10 -11 10 -5 0 -7 -4 -4 -10z" fill="#ffffff"/>
<path d="M2180 540 c0 -4 3 -10 8 -14 4 -4 7 -13 7 -18 0 -6 7 -13 15 -15 13 -4 13 -3 0 6 -10 7 -11 11 -2 11 6 0 12 9 12 19 0 14 -6 19 -20 18 -11 -1 -20 -4 -20 -7z" fill="#ffffff"/>
<path d="M2327 451 c-47 -10 -69 -83 -33 -109 21 -15 123 -44 142 -40 30 5 29 49 -1 84 -57 63 -67 74 -74 73 -3 -1 -19 -4 -34 -8z" fill="#ffffff"/>
<path d="M2335 191 c6 -11 4 -13 -8 -8 -9 3 -19 2 -22 -4 -4 -5 -10 -7 -15 -4 -9 5 -20 -28 -20 -63 0 -15 8 -26 26 -32 35 -14 41 -13 64 10 28 28 25 62 -7 91 -14 13 -23 18 -18 10z" fill="#ffffff"/>
<path d="M1904 172 c9 -15 116 -54 135 -49 9 1 -9 12 -39 24 -85 32 -103 37 -96 25z" fill="#ffffff" fill="white"/>
</g> 
</svg>